<svg width="151" height="151" viewBox="0 0 151 151" fill="none" xmlns="http://www.w3.org/2000/svg">
<rect x="2.12305" y="32.2397" width="147" height="87" rx="10.5" fill="white" stroke="#1D1D1D" stroke-width="3"/>
<path fill-rule="evenodd" clip-rule="evenodd" d="M74.348 66.3647H71.873L66.248 78.3272L60.623 66.3647H53.123V82.1897L45.923 66.3647H38.798L30.623 85.1147H36.2105L37.898 80.9522H46.673L48.4355 85.1147H57.8105V71.6147L64.073 85.1147H68.6105L74.348 72.7397V85.1147H79.373V66.3647H74.498H74.348ZM39.6603 76.6768L42.2103 70.4518L44.8728 76.6768H39.6603Z" fill="#1D1D1D"/>
<path fill-rule="evenodd" clip-rule="evenodd" d="M120.623 66.3647H114.023L108.698 71.9897L103.485 66.3647H82.8228V85.1147H103.073L108.585 79.2272L113.985 85.1147H120.623L111.96 75.7397L120.623 66.3647ZM98.1228 83.2394V80.8019H87.6228V77.8394H98.1228V73.6019H87.6228V70.6394H98.1228V67.7894L105.36 75.7394L98.1228 83.2394Z" fill="#1D1D1D"/>
</svg>
