<svg width="151" height="151" viewBox="0 0 151 151" fill="none" xmlns="http://www.w3.org/2000/svg">
<rect x="2.12305" y="32.2397" width="147" height="87" rx="10.5" fill="white" stroke="#1D1D1D" stroke-width="3"/>
<g clip-path="url(#clip0_15_3033)">
<path d="M47.0594 46.4429H70.4237C73.683 46.4429 75.6971 49.1162 74.9647 52.3755L64.0882 99.0674C63.3192 102.327 60.0599 105 56.8006 105H33.4364C30.1771 105 28.1629 102.327 28.8954 99.0674L39.7718 52.3755C40.5409 49.1162 43.8002 46.4429 47.0594 46.4429Z" fill="#1D1D1D"/>
<path d="M68.4816 46.4429H95.3248C98.5841 46.4429 97.1192 49.1162 96.3502 52.3755L85.5104 99.0674C84.7413 102.327 84.9977 105 81.7018 105H54.8585C51.5992 105 49.5851 102.327 50.3541 99.0674L61.194 52.3755C61.963 49.1162 65.2223 46.4429 68.4816 46.4429Z" fill="#1D1D1D"/>
<path d="M94.2632 46.4429H117.627C120.887 46.4429 122.938 49.1162 122.169 52.3755L111.292 99.0674C110.523 102.327 107.264 105 104.004 105H80.6768C77.4175 105 75.3667 102.327 76.1358 99.0674L86.9756 52.3755C87.7447 49.1162 91.0039 46.4429 94.2632 46.4429Z" fill="#1D1D1D"/>
<path d="M53.1743 61.4209C50.7573 61.4575 50.0615 61.4209 49.8418 61.3843C49.7686 61.7871 48.1206 69.2578 48.1206 69.2944C47.7544 70.7959 47.5347 71.8945 46.6558 72.5903C46.1797 72.9932 45.5937 73.1763 44.9346 73.1763C43.8726 73.1763 43.25 72.6636 43.1401 71.6382L43.1035 71.3086C43.1035 71.3086 43.4331 69.2944 43.4331 69.2578C43.4331 69.2578 45.1177 62.4463 45.4473 61.5308C45.4473 61.4941 45.4839 61.4575 45.4839 61.4209C42.188 61.4575 41.6021 61.4209 41.5288 61.3843C41.4922 61.4575 41.4189 61.897 41.4189 61.897L39.6978 69.5874L39.5513 70.2466L39.2583 72.3706C39.2583 72.9932 39.3682 73.5058 39.6245 73.9453C40.4302 75.3369 42.6641 75.52 43.9458 75.52C45.5937 75.52 47.1318 75.1538 48.1938 74.5312C49.9883 73.4692 50.4644 71.7847 50.9038 70.3198L51.0869 69.5142C51.0869 69.5142 52.8447 62.4463 53.1377 61.5308C53.1377 61.4575 53.1743 61.4209 53.1743 61.4209ZM59.1436 67.0972C58.7041 67.0972 57.9351 67.207 57.2393 67.5366C56.9829 67.6831 56.7632 67.8296 56.5068 67.9761L56.7266 67.1704L56.6167 67.0239C55.1519 67.3169 54.8223 67.3535 53.4673 67.5366L53.3574 67.6099C53.2109 68.9282 53.0645 69.917 52.4785 72.4805C52.2588 73.4326 52.0391 74.3848 51.7827 75.3369L51.856 75.4468C53.2476 75.3735 53.687 75.3735 54.8955 75.4101L55.0054 75.3003C55.1519 74.5312 55.1885 74.3115 55.5181 72.7368C55.6645 71.9678 55.9941 70.3198 56.1772 69.7339C56.4702 69.5874 56.7632 69.4409 57.0562 69.4409C57.752 69.4409 57.6421 70.0268 57.6421 70.2832C57.6055 70.686 57.3491 71.9678 57.1294 73.0664L56.9463 73.7988C56.8364 74.3115 56.6899 74.8242 56.5801 75.3735L56.6167 75.4834C57.9717 75.4101 58.4111 75.4101 59.583 75.4468L59.7295 75.3369C59.9492 74.0918 59.9858 73.7622 60.3887 72.0044L60.5718 71.1987C60.938 69.5874 61.1211 68.7817 60.8281 68.1226C60.4985 67.2803 59.7661 67.0972 59.1436 67.0972ZM65.8086 68.7817C65.0762 68.9282 64.6001 69.0015 64.1606 69.0747C63.6846 69.1479 63.2451 69.2212 62.5493 69.2944L62.4761 69.331L62.4395 69.4043C62.3662 69.917 62.3296 70.3931 62.2197 70.9058C62.1465 71.4551 62 72.0776 61.8169 72.9931C61.6704 73.6889 61.5605 73.9087 61.4873 74.165C61.4141 74.4214 61.3042 74.6411 61.1211 75.3369L61.1577 75.4101L61.1943 75.4834C61.8535 75.4468 62.293 75.4468 62.7324 75.4101C63.1719 75.4101 63.6479 75.4101 64.3438 75.4101L64.417 75.3735L64.4902 75.3003C64.6001 74.6777 64.6001 74.5312 64.6733 74.2383C64.7466 73.9087 64.8564 73.4692 65.1128 72.2973C65.2227 71.748 65.3691 71.1987 65.5156 70.6128C65.6621 70.0635 65.772 69.4775 65.9185 68.9282L65.8818 68.855L65.8086 68.7817ZM65.8086 66.5112C65.1494 66.1084 63.9775 66.2549 63.2085 66.7676C62.4395 67.2803 62.3296 68.0493 62.9888 68.4521C63.648 68.8183 64.8198 68.7085 65.5889 68.1592C66.3579 67.6465 66.4678 66.9141 65.8086 66.5112ZM69.8369 75.5932C71.1919 75.5932 72.5469 75.227 73.5723 74.1284C74.3779 73.2495 74.7441 71.9311 74.854 71.3818C75.2568 69.5874 74.9272 68.7451 74.5244 68.2324C73.9019 67.4634 72.8398 67.207 71.7046 67.207C71.0454 67.207 69.4341 67.2803 68.189 68.4155C67.2734 69.2578 66.8706 70.3931 66.6143 71.4551C66.3579 72.5537 66.0649 74.5679 67.896 75.3003C68.4819 75.52 69.2876 75.5932 69.8369 75.5932ZM69.727 71.5283C70.02 70.1733 70.3862 69.0015 71.3384 69.0015C72.0708 69.0015 72.1074 69.8437 71.8145 71.2353C71.7412 71.5283 71.4849 72.6636 71.1187 73.1396C70.8623 73.5058 70.5693 73.7256 70.2397 73.7256C70.1299 73.7256 69.5439 73.7256 69.5439 72.8467C69.5073 72.4438 69.6172 72.0044 69.727 71.5283ZM78.2231 75.4101L78.333 75.3003C78.4795 74.5312 78.5161 74.3115 78.8457 72.7368C78.9922 71.9678 79.3584 70.3198 79.5049 69.7339C79.7979 69.5874 80.0908 69.4409 80.3838 69.4409C81.043 69.4409 80.9697 70.0268 80.9331 70.2832C80.8965 70.686 80.6768 71.9678 80.4204 73.0664L80.2739 73.7988C80.1641 74.3115 80.0176 74.8242 79.9077 75.3735L79.9443 75.4834C81.3359 75.4101 81.7388 75.4101 82.9106 75.4468L83.0571 75.3369C83.2769 74.0918 83.3135 73.7622 83.7163 72.0044L83.8994 71.1987C84.2656 69.5874 84.4487 68.7817 84.1924 68.1226C83.8994 67.3901 83.167 67.207 82.5444 67.207C82.105 67.207 81.3359 67.3169 80.6401 67.6465C80.3838 67.793 80.1641 67.9394 79.9077 68.0859L80.1274 67.2803L80.0176 67.1338C78.5527 67.4268 78.2231 67.4634 76.8682 67.6465L76.7583 67.7197C76.6118 69.0381 76.4653 70.0268 75.8794 72.5903C75.6597 73.5425 75.4399 74.4946 75.1836 75.4468L75.2568 75.5566C76.5752 75.3735 77.0147 75.3735 78.2231 75.4101ZM88.3306 75.4468C88.4038 75.0073 88.9165 72.5171 88.9531 72.5171C88.9531 72.5171 89.3926 70.686 89.4292 70.6128C89.4292 70.6128 89.5757 70.4297 89.7222 70.3564H89.9419C91.8462 70.3564 94.0068 70.3564 95.6914 69.1113C96.8267 68.269 97.6323 66.9873 97.9985 65.4492C98.0718 65.083 98.145 64.6436 98.145 64.1675C98.145 63.5815 98.0352 62.9956 97.6689 62.5562C96.79 61.3477 95.1055 61.311 93.0913 61.311H92.1025C89.5757 61.3477 88.5503 61.3477 88.1108 61.2744C88.0742 61.4575 88.001 61.7871 88.001 61.7871L87.0855 65.9985C87.0855 65.9985 84.9248 74.9707 84.8149 75.3735C87.0122 75.4101 87.9277 75.4101 88.3306 75.4468ZM90.0151 67.9761C90.0151 67.9761 90.9673 63.7646 90.9673 63.8013L91.0039 63.5815V63.4351L91.4067 63.4717C91.4067 63.4717 93.3843 63.6548 93.4575 63.6548C94.2266 63.9478 94.5562 64.7534 94.3364 65.7788C94.1167 66.731 93.5308 67.5 92.7251 67.8662C92.0659 68.1958 91.2969 68.2324 90.4912 68.2324H89.9785L90.0151 67.9761ZM96.021 71.6015C95.7646 72.7002 95.4717 74.6777 97.3027 75.3735C97.8887 75.6299 98.4014 75.7031 98.9507 75.6665C99.5 75.6299 100.013 75.3735 100.489 74.9707C100.452 75.1538 100.416 75.3003 100.342 75.4834L100.416 75.5932C101.734 75.52 102.137 75.52 103.565 75.5566L103.711 75.4468C103.931 74.2383 104.114 73.0298 104.664 70.7226C104.92 69.624 105.176 68.4888 105.469 67.3901L105.433 67.2803C103.968 67.5366 103.565 67.6099 102.173 67.793L102.063 67.8662C102.063 67.9761 102.027 68.0859 102.027 68.1958C101.807 67.8296 101.478 67.5366 101.001 67.3535C100.379 67.0972 98.9141 67.4268 97.6323 68.562C96.6802 69.4043 96.2773 70.5029 96.021 71.6015ZM99.0972 71.6748C99.4268 70.3198 99.7563 69.1846 100.708 69.1846C101.294 69.1846 101.624 69.7339 101.551 70.6494C101.514 70.8691 101.441 71.1255 101.368 71.4184C101.258 71.8213 101.185 72.2241 101.075 72.6269C100.965 72.8833 100.855 73.1396 100.745 73.3227C100.489 73.6523 99.9395 73.8721 99.6099 73.8721C99.5 73.8721 98.9507 73.8721 98.9141 73.0298C98.9141 72.5903 98.9873 72.1509 99.0972 71.6748ZM115.174 67.2436L115.064 67.0972C113.599 67.3901 113.343 67.4268 112.024 67.6099L111.915 67.7197C111.915 67.7197 111.915 67.7563 111.915 67.793V67.7563C110.926 70.0268 110.962 69.5508 110.157 71.3452C110.157 71.272 110.157 71.1987 110.157 71.1255L109.937 67.207L109.827 67.0605C108.326 67.3535 108.289 67.3901 106.861 67.5732L106.751 67.6831C106.751 67.7197 106.751 67.793 106.714 67.8296V67.8662C106.897 68.7451 106.861 68.562 107.007 69.9902C107.081 70.686 107.19 71.3818 107.264 72.0776C107.41 73.2129 107.483 73.7988 107.667 75.5566C106.714 77.1313 106.495 77.7173 105.579 79.0722L104.92 80.0976C104.847 80.2075 104.773 80.2807 104.7 80.3174C104.59 80.354 104.48 80.3906 104.297 80.3906H103.931L103.418 82.1484L105.25 82.185C106.312 82.185 106.971 81.6723 107.337 81.0132L108.472 79.0722L108.582 78.9258C109.351 77.2412 115.174 67.2436 115.174 67.2436ZM96.021 90.3515H95.252L98.1084 80.9399H99.0605L99.3535 79.9511L99.3901 81.0132C99.3535 81.6723 99.8662 82.2583 101.258 82.185H102.869L103.418 80.354H102.833C102.503 80.354 102.32 80.2807 102.356 80.0976L102.32 78.999H99.3535C98.4014 79.0356 95.5449 79.1089 94.959 79.2553C94.2632 79.4385 93.5308 79.9511 93.5308 79.9511L93.8237 78.9624H91.0771L90.4912 80.9033L87.5981 90.4614H87.0488L86.4995 92.2558H91.9927L91.8096 92.8418H94.5195L94.7026 92.2558H95.4717L96.021 90.3515ZM93.7871 82.8442C93.3477 82.9541 92.5054 83.3203 92.5054 83.3203L93.2378 80.9033H95.4351L94.9224 82.6611C94.8857 82.6611 94.2266 82.6977 93.7871 82.8442ZM93.8237 86.25C93.8237 86.25 93.1279 86.3232 92.6885 86.4331C92.249 86.5796 91.4067 86.9824 91.4067 86.9824L92.1758 84.4922H94.373L93.8237 86.25ZM92.5786 90.3515H90.3813L91.0039 88.2275H93.2012L92.5786 90.3515ZM97.8887 84.5288H101.075L100.635 85.9936H97.4126L96.9365 87.6049H99.7563L97.6323 90.6079C97.4858 90.8276 97.3394 90.9008 97.1929 90.9741C97.0464 91.0473 96.8633 91.1206 96.6069 91.1206H95.8379L95.2886 92.8784H97.3394C98.4014 92.8784 99.0239 92.4023 99.5 91.7797L100.965 89.7656L101.294 91.7797C101.368 92.146 101.624 92.3657 101.807 92.4755C102.027 92.5854 102.21 92.7685 102.503 92.7685C102.833 92.7685 103.052 92.8051 103.199 92.8051H104.188L104.773 90.8276H104.371C104.151 90.8276 103.748 90.791 103.675 90.7177C103.602 90.6445 103.602 90.498 103.565 90.2783L103.235 88.2275H101.99L102.576 87.5317H105.799L106.275 85.9204H103.309L103.785 84.4555H106.751L107.3 82.6245H98.4746L97.8887 84.5288ZM71.082 90.7544L71.8145 88.3007H74.854L75.4033 86.4697H72.3638L72.8398 84.9682H75.8062L76.3555 83.2104H68.9214L68.3721 84.9682H70.0566L69.6172 86.4697H67.9326L67.3833 88.3374H69.0679L68.0791 91.5966C67.9326 92.0361 68.1523 92.1826 68.2622 92.4023C68.3721 92.5854 68.5186 92.7319 68.8115 92.8051C69.1045 92.8784 69.3242 92.915 69.5806 92.915H73.0229L73.6455 90.9008L72.1074 91.1206C71.8145 91.0839 71.0088 91.0473 71.082 90.7544ZM71.4482 78.9624L70.6792 80.354C70.4961 80.6469 70.3496 80.8301 70.2397 80.9399C70.1299 81.0132 69.8735 81.0498 69.5439 81.0498H69.1411L68.5918 82.8442H69.9468C70.606 82.8442 71.082 82.6245 71.3018 82.478C71.5581 82.3315 71.6313 82.4048 71.8145 82.2217L72.2539 81.8188H76.4287L76.978 79.9511H73.9385L74.4878 78.9258H71.4482V78.9624ZM77.6006 90.791C77.5273 90.6811 77.564 90.498 77.6738 90.1318L78.8091 86.3598H82.874C83.46 86.3598 83.8994 86.3598 84.1558 86.3232C84.4487 86.2866 84.7783 86.1767 85.1445 85.9936C85.5107 85.8105 85.6938 85.5908 85.8403 85.3344C86.0234 85.0781 86.3164 84.5654 86.5361 83.7597L87.9644 78.999L83.7529 79.0356C83.7529 79.0356 82.4712 79.2187 81.8853 79.4385C81.2993 79.6582 80.4937 80.3174 80.4937 80.3174L80.8599 78.999H78.2598L74.6343 91.0839C74.4878 91.56 74.4146 91.8896 74.4146 92.1093C74.4146 92.3291 74.7075 92.5488 74.8906 92.6953C75.1104 92.8418 75.4399 92.8418 75.7329 92.8418C76.0625 92.8784 76.502 92.8784 77.1611 92.8784H79.1753L79.7979 90.791L78.0034 90.9741C77.7837 91.0107 77.6372 90.9008 77.6006 90.791ZM79.5781 83.833H83.8262L83.5698 84.6753C83.5332 84.7119 83.4233 84.6386 83.0205 84.6753H79.2852L79.5781 83.833ZM80.4204 80.9765H84.7051L84.4121 82.0019C84.4121 82.0019 82.398 81.9653 82.0684 82.0385C80.6401 82.2949 79.7979 83.0639 79.7979 83.0639L80.4204 80.9765ZM83.6431 87.4951C83.6064 87.6049 83.5698 87.7148 83.46 87.7514C83.3867 87.8247 83.2402 87.8247 83.0205 87.8247H82.398L82.4346 86.7993H79.9077L79.7979 91.853C79.7979 92.2192 79.8345 92.4389 80.0908 92.5854C80.3472 92.8051 81.1895 92.8051 82.2881 92.8051H83.8628L84.4487 90.9008L83.0571 90.9741L82.5811 91.0107C82.5078 90.9741 82.4712 90.9741 82.398 90.9008C82.3247 90.8276 82.2515 90.8642 82.2515 90.498V89.2163L83.6797 89.143C84.4487 89.143 84.7783 88.8867 85.0713 88.6303C85.3276 88.4106 85.4375 88.1176 85.5474 87.7881L85.8037 86.6528H83.8262L83.6431 87.4951Z" fill="#FEFEFE"/>
</g>
<defs>
<clipPath id="clip0_15_3033">
<rect width="93.75" height="58.5938" fill="white" transform="translate(28.748 46.4429)"/>
</clipPath>
</defs>
</svg>
