<svg width="151" height="151" viewBox="0 0 151 151" fill="none" xmlns="http://www.w3.org/2000/svg">
<rect x="2.12305" y="32.2397" width="147" height="87" rx="10.5" fill="white" stroke="#1D1D1D" stroke-width="3"/>
<path fill-rule="evenodd" clip-rule="evenodd" d="M65.573 62.7264L54.8105 88.5639H47.723L42.5105 68.0889C42.4249 67.1023 41.8267 66.2335 40.9355 65.8014C38.8496 64.7913 36.6448 64.048 34.373 63.5889V62.8389H45.623C47.1542 62.8385 48.4582 63.9517 48.698 65.4639L51.5105 80.4639L58.4105 62.8764L65.573 62.7264ZM93.0607 80.1268C93.0607 73.3018 83.6857 72.9268 83.7607 69.8893C83.7607 68.9518 84.6607 67.9768 86.5732 67.7143C88.8133 67.5051 91.0682 67.9068 93.0982 68.8768L94.2607 63.4018C92.2725 62.6432 90.1637 62.2494 88.0357 62.2393C81.4732 62.2393 76.7857 65.7643 76.7857 70.7893C76.7857 74.5393 80.0857 76.6018 82.5982 77.8393C85.1107 79.0768 86.0482 79.9018 86.0482 81.0643C86.0482 82.7893 83.9857 83.5768 82.0732 83.5768C79.694 83.6244 77.3429 83.056 75.2482 81.9268L73.9732 87.5893C76.3607 88.5298 78.9072 89.0009 81.4732 88.9768C88.4482 88.9768 92.9857 85.5268 93.0232 80.1268H93.0607ZM110.348 88.5639H116.498L111.136 62.7264H105.511C104.271 62.7301 103.157 63.4871 102.698 64.6389L92.7232 88.5639H99.6982L101.086 84.8139H109.598L110.348 88.5639ZM102.848 79.4149L106.336 69.7024L108.473 79.3399L102.848 79.4149ZM74.9484 62.7264L69.4734 88.5639H62.9484L68.4234 62.7264H74.9484Z" fill="#1D1D1D"/>
</svg>
